<?xml version="1.0" encoding="UTF-8" standalone="no"?>
<svg
   width="100"
   height="100"
   viewBox="0 0 100 100"
   fill="none"
   version="1.1"
   id="svg2"
   xml:space="preserve"
   xmlns="http://www.w3.org/2000/svg"
   xmlns:svg="http://www.w3.org/2000/svg"><g
     clip-path="url(#clip0_1114_7976)"
     id="g1"><circle
       cx="50"
       cy="50"
       r="50"
       fill="#D9D9D9"
       id="circle1" /></g><circle
     cx="50"
     cy="50"
     r="50"
     fill="#595959"
     id="circle2" /><defs
     id="defs2"><clipPath
       id="clip0_1114_7976"><rect
         width="100"
         height="100"
         fill="white"
         id="rect2" /></clipPath></defs><g
     style="fill:none"
     id="g2"
     transform="translate(21.441972,21.499976)"><path
       d="m 24.1522,32.8479 c 1.2642,1.2025 1.2642,3.176 0,4.3786 -1.2026,1.2026 -3.1761,1.2026 -4.3787,0 -6.013,-6.0129 -6.013,-15.7879 0,-21.8009 L 30.6893,4.50974 c 6.013,-6.01299 15.788,-6.01299 21.801,0 6.013,6.01296 6.013,15.78796 0,21.80096 l -4.5946,4.5945 c 0.0309,-2.5285 -0.37,-5.0571 -1.2334,-7.4623 l 1.4493,-1.4801 c 3.6386,-3.6078 3.6386,-9.4666 0,-13.07438 -3.6078,-3.63862 -9.4666,-3.63862 -13.0744,0 L 24.1522,19.7735 c -3.6387,3.6078 -3.6387,9.4666 0,13.0744 z m 8.6957,-13.0744 c 1.2025,-1.2026 3.176,-1.2026 4.3786,0 6.013,6.0129 6.013,15.7879 0,21.8009 L 26.3107,52.4903 c -6.013,6.013 -15.788,6.013 -21.80096,0 -6.01299,-6.013 -6.01299,-15.788 0,-21.801 l 4.59453,-4.5945 c -0.03083,2.5285 0.37004,5.0571 1.23343,7.4931 l -1.44928,1.4493 c -3.63862,3.6078 -3.63862,9.4666 0,13.0744 3.60778,3.6386 9.46658,3.6386 13.07438,0 L 32.8479,37.2265 c 3.6386,-3.6078 3.6386,-9.4666 0,-13.0743 -1.2643,-1.2026 -1.2643,-3.1761 0,-4.3787 z"
       fill="#9f9f9f"
       id="path1" /></g></svg>
