<svg width="100" height="100" viewBox="0 0 100 100" fill="none" xmlns="http://www.w3.org/2000/svg">
<g clip-path="url(#clip0_378_117)">
<circle cx="50" cy="50" r="50" fill="#D9D9D9"/>
</g>
<circle cx="50" cy="50" r="50" fill="#595959"/>
<path d="M76.1292 23H22.8708C20.7347 23 19 24.9685 19 27.4132V72.5868C19 75.0186 20.7347 77 22.8708 77H76.1292C78.2653 77 80 75.0314 80 72.5868V27.4132C80 24.9814 78.2653 23 76.1292 23ZM76.1292 27.4132V59.4632L68.4913 51.5633C67.3391 50.3796 65.5785 50.4182 64.4781 51.6662L56.7496 60.4539L41.5125 39.752C40.3604 38.1823 38.2502 38.1694 37.0851 39.7134L22.8708 58.5368V27.4132H76.1292ZM59.6624 38.98C59.6624 35.6347 62.0444 32.9199 64.983 32.9199C67.9217 32.9199 70.3037 35.6347 70.3037 38.98C70.3037 42.3252 67.9217 45.04 64.983 45.04C62.0444 45.04 59.6624 42.3252 59.6624 38.98Z" fill="#9F9F9F"/>
<defs>
<clipPath id="clip0_378_117">
<rect width="100" height="100" fill="white"/>
</clipPath>
</defs>
</svg>
