<svg width="100" height="100" viewBox="0 0 100 100" fill="none" xmlns="http://www.w3.org/2000/svg">
<g clip-path="url(#clip0_378_106)">
<circle cx="50" cy="50" r="50" fill="#D9D9D9"/>
</g>
<circle cx="50" cy="50" r="50" fill="#595959"/>
<path d="M59.5091 43C60.4144 43 61.2885 43.1507 62.1314 43.452C62.9743 43.7834 63.708 44.2655 64.3323 44.8983C64.9567 45.5612 65.4562 46.3597 65.8308 47.2938C66.2054 48.258 66.3927 49.3729 66.3927 50.6384C66.3927 55.3691 63.3021 60.823 57.1208 67L53 63.1582C53.6556 62.5556 54.3112 61.9077 54.9668 61.2147C55.5911 60.5217 56.1687 59.8136 56.6994 59.0904C57.1989 58.3974 57.636 57.6893 58.0106 56.9661C58.3852 56.2731 58.6662 55.6252 58.8535 55.0226C57.074 54.8719 55.6536 54.2241 54.5921 53.0791C53.5307 51.9341 53 50.5932 53 49.0565C53 48.2429 53.1561 47.4746 53.4683 46.7514C53.7805 46.0283 54.2175 45.3804 54.7795 44.8079C55.3414 44.2655 56.0282 43.8286 56.8399 43.4972C57.6516 43.1657 58.5413 43 59.5091 43ZM77.1163 43C78.0216 43 78.8958 43.1507 79.7387 43.452C80.5816 43.7834 81.3152 44.2655 81.9396 44.8983C82.5639 45.5612 83.0634 46.3597 83.4381 47.2938C83.8127 48.258 84 49.3729 84 50.6384C84 55.3691 80.9094 60.823 74.7281 67L70.6073 63.1582C71.2628 62.5556 71.9184 61.9077 72.574 61.2147C73.1984 60.5217 73.7759 59.8136 74.3066 59.0904C74.8061 58.3974 75.2432 57.6893 75.6178 56.9661C75.9924 56.2731 76.2734 55.6252 76.4607 55.0226C74.6813 54.8719 73.2608 54.2241 72.1994 53.0791C71.138 51.9341 70.6073 50.5932 70.6073 49.0565C70.6073 48.2429 70.7633 47.4746 71.0755 46.7514C71.3877 46.0282 71.8248 45.3804 72.3867 44.8079C72.9486 44.2655 73.6354 43.8286 74.4471 43.4972C75.2588 43.1657 76.1485 43 77.1163 43Z" fill="#9F9F9F"/>
<path d="M39.4909 55C38.5856 55 37.7115 54.8493 36.8686 54.548C36.0257 54.2166 35.292 53.7345 34.6677 53.1017C34.0433 52.4388 33.5438 51.6403 33.1692 50.7062C32.7946 49.742 32.6072 48.6271 32.6072 47.3616C32.6073 42.6309 35.6979 37.177 41.8792 31L46 34.8418C45.3444 35.4444 44.6888 36.0923 44.0332 36.7853C43.4089 37.4783 42.8313 38.1864 42.3006 38.9096C41.8011 39.6026 41.364 40.3107 40.9894 41.0339C40.6148 41.7269 40.3338 42.3748 40.1465 42.9774C41.926 43.1281 43.3464 43.7759 44.4079 44.9209C45.4693 46.0659 46 47.4068 46 48.9435C46 49.7571 45.8439 50.5254 45.5317 51.2486C45.2195 51.9718 44.7825 52.6196 44.2205 53.1921C43.6586 53.7345 42.9718 54.1714 42.1601 54.5028C41.3484 54.8343 40.4587 55 39.4909 55ZM21.8837 55C20.9783 55 20.1042 54.8493 19.2613 54.548C18.4184 54.2166 17.6848 53.7345 17.0604 53.1017C16.436 52.4388 15.9366 51.6403 15.5619 50.7062C15.1873 49.742 15 48.6271 15 47.3616C15 42.6309 18.0906 37.177 24.2719 31L28.3927 34.8418C27.7372 35.4444 27.0816 36.0923 26.426 36.7853C25.8016 37.4783 25.2241 38.1864 24.6934 38.9096C24.1939 39.6026 23.7568 40.3107 23.3822 41.0339C23.0076 41.7269 22.7266 42.3748 22.5393 42.9774C24.3187 43.1281 25.7392 43.7759 26.8006 44.9209C27.862 46.0659 28.3927 47.4068 28.3927 48.9435C28.3927 49.7571 28.2367 50.5254 27.9245 51.2486C27.6123 51.9717 27.1752 52.6196 26.6133 53.1921C26.0514 53.7345 25.3645 54.1714 24.5529 54.5028C23.7412 54.8343 22.8515 55 21.8837 55Z" fill="#9F9F9F"/>
<defs>
<clipPath id="clip0_378_106">
<rect width="100" height="100" fill="white"/>
</clipPath>
</defs>
</svg>
